<?xml version="1.0"?>
<svg xmlns:rdf="http://www.w3.org/1999/02/22-rdf-syntax-ns#" xmlns="http://www.w3.org/2000/svg" xmlns:cc="http://creativecommons.org/ns#" xmlns:xlink="http://www.w3.org/1999/xlink" xmlns:dc="http://purl.org/dc/elements/1.1/" xmlns:svg="http://www.w3.org/2000/svg" id="svg2" viewBox="0 0 657.67 990.56" version="1.1">
  <defs id="defs4">
    <linearGradient id="linearGradient2992" y2="1073.4" gradientUnits="userSpaceOnUse" x2="-1041.7" gradientTransform="matrix(.78572 0 0 .78572 1083.4 271.04)" y1="-330.91" x1="-995.28">
      <stop id="stop2988" stop-color="#006400" offset="0"/>
      <stop id="stop3000" stop-color="#006400" offset=".25428"/>
      <stop id="stop2998" stop-color="#00a800" offset=".34962"/>
      <stop id="stop2996" stop-color="#008000" offset=".53746"/>
      <stop id="stop2994" stop-color="#008c00" offset=".69435"/>
      <stop id="stop2990" stop-color="#000400" offset="1"/>
    </linearGradient>
    <filter id="filter3786" color-interpolation-filters="sRGB">
      <feGaussianBlur id="feGaussianBlur3788" stdDeviation="17.352728"/>
    </filter>
  </defs>
  <g id="layer1" transform="translate(-49.64 -31.071)">
    <path id="path3002" filter="url(#filter3786)" d="m-992.55-244.54-35.93 77.677c-11.51 22.392-7.8727 26.196 2.6697 46.156l58.523 110.8 9.2197 67.259c3.0612 21.262 4.1298 19.601-14.702 22.44l-74.84 11.283c-15.324 2.9978-17.373 0.22301-25.893-9.3348l-58.832-72.427c-4.9525-6.0945-3.7589-8.1937 4.6689-9.398l34.443-4.0661c51.589 38.536 41.757-57.642 6.6904-24.366l-32.323 1.8663c-8.599 1.0782-11.353-2.1739-6.9661-7.6119l18.28-19.554c71.476 0.10489-15.022-81.929-17.038-16.653l-23.278 24.965c-7.0225 8.8776-11.34 4.2714-14.474-2.0888l-12.437-28.537c31.802-62.885-84.846-21.471-26.034 7.9134l11.644 25.984c4.1071 8.9655-0.6534 9.3024-6.1101 7.7696l-36.3-11.608c-27.05-69.918-70.289 53.865-14.554 21.8l39.695 13.938c3.8738 1.03 7.8803 5.3375 2.5215 9.1335l-30.627 19.193c-51.964-16.102-18.202 67.063 11.536 22.07l41.786-26.192c9.3649-5.6128 11.252-6.0176 17.979 3.1607 24.56 30.875 59.122 82.983 76.133 109.09 9.2654 15.144 12.396 15.356 28.28 14.72l88.45-5.8251c21.116-2.0008 19.736 0.62025 20.231 17.631 1.6661 55.889 12.903 108.22 28.096 161.38 7.1756 22.166 7.425 19.862-1.974 41.539l-34.014 78.447c-9.4444 17.103-9.785 26.837-11.712 45.677l-11.637 113.77c-1.7138 8.3431-2.5016 10.738-10.365 9.6624l-41.504-13.654c-21.629-45.625-54.976 53.164-1.8268 24.451l33.524 10.222c4.4025 1.4307 10.134 5.0278 5.4427 8.6807l-28.147 25.791c-62.333-2.9226 27.391 81.759 17.576 12.837l30.571-24.416c6.2379-5.7652 10.055-3.738 13.36 1.5074l22.322 35.169c-2.6551 65.379 86.486-10.398 18.043-15.192l-15.953-29.255c-2.2006-4.0873 1.4099-9.0569 8.0099-8.5194l33.727 1.7027c47.167 32.505 37.316-62.623-3.1573-24.437l-35.277-2.4208c-7.2895 0.18613-10.608-1.5249-7.6049-9.5157l18.129-58.012c3.4163-16.736 9.7234-27.931 18.379-42.07l28.648-46.794c9.7437-19.824 19.524-6.7202 18.73 3.4357 5.1576 71.586 35.634 129.06 53.182 191.02 54.922 237.51-185.24 241.48-272.1 187.16-90.41-56.535-94.152-164.81-29.038-247.75-97.143 56.451-69.989 216.97 0.1073 280.17 92.271 83.195 242.92 45.085 297.11 6.3221 70.087-50.136 84.478-156.71 57.563-243.28-17.047-54.835-50.929-110.62-35.272-204.1 1.4193-7.6861 10.047-6.1713 13.713-4.011l76.019 41.665c8.2177 2.9999 10.8 7.6916 15.077 14.82l39.973 66.622c6.025 9.0417 1.4489 10.462-6.0604 12.997l-29.385 9.2601c-57.293-19.84-33.84 73.423 1.9409 24.812l29.053-6.3389c11.099-3.4778 9.8222 2.2862 7.8314 9.9428l-5.2613 25.059c-63.145 26.524 41.1 77.215 20.857 9.8081l15.095-34.203c4.2703-11.401 6.9622-9.1486 16.169-5.6252l31.064 13.96c9.0956 69.166 70.227-36.134 14.14-15.446l-25.653-16.634c-5.4541-3.5164-10.968-6.8955-3.7034-11.504l29.549-18.378c56.734 16.24 4.6594-76.669-13.007-19.764l-29.995 16.921c-8.8394 4.2676-10.864 2.4651-15.125-5.8259l-49.153-110c-3.2431-10.432-7.1121-13.828-15.066-20.506l-113.1-94.956c-12.521-9.1572-10.609-10.083-12.609-23.19-6.7577-44.238-16.105-90.202-40.986-146.52-8.0174-19.011-6.7642-18.707 12.954-26.814l76.812-31.584c17.451-6.1742 15.076-6.3578 24.591-21.729l63.66-108.97c7.6224-15.144 7.6264-15.192 22.078-8.1923l43.009 20.832c30.755 45.562 59.657-44.397 8.153-21.615l-32.923-13.757c-8.7751-4.5407-5.9588-11.285 0.23599-13.835l39.581-16.297c60.833 31.878 2.2047-93.947-14.565-21.054l-35.084 17.929c-10.906 7.1447-12.861-4.515-10.032-10.11l10.187-24.696c60.978-36.434-65.337-64.816-25.119-6.4129l-7.8957 29.488c-3.2184 13.13-8.627 11.628-16.198 4.3618l-25.702-25.073c-11.856-65.72-83.253 28.72-17.121 18.473l22.461 17.894c7.7617 5.0027 4.9669 11.595-3.9613 10.581l-34.242-0.47658c-43.392-29.924-34.276 65.836 7.2401 23.326l35.5-1.7316c9.1598-0.3197 16.042 2.4436 6.6324 13.713l-61.317 81.646c-10.272 13.644-7.7253 11.928-23.411 15.414l-68.478 15.217c-22.549 5.2916-21.294 3.7455-29.761-15.762l-27.324-62.954 16.642-116.02c2.4937-25.418 3.3396-30.017-12.134-49.035l-54.282-57.102c-11.307-12.565-33.9-25.374-46.918 4.6672z" fill="#000400" transform="matrix(.78572 0 0 .78572 1083.4 271.04)"/>
    <path id="path2985" opacity=".93411" d="m290.23 78.893-28.231 61.033c-9.0438 17.594-6.1857 20.583 2.0977 36.266l45.982 87.059 7.2441 52.846c2.4052 16.706 3.2448 15.401-11.552 17.632l-58.804 8.8653c-12.04 2.3554-13.65 0.17522-20.345-7.3345l-46.226-56.907c-3.8913-4.7886-2.9535-6.4379 3.6684-7.3842l27.062-3.1948c40.535 30.279 32.809-45.291 5.2568-19.145l-25.397 1.4664c-6.7564 0.8472-8.9201-1.708-5.4734-5.9808l14.363-15.364c56.161 0.0824-11.803-64.374-13.387-13.085l-18.29 19.616c-5.5177 6.9753-8.9098 3.3561-11.373-1.6412l-9.7717-22.422c24.987-49.41-66.665-16.87-20.456 6.2177l9.1489 20.417c3.227 7.0444-0.5134 7.3091-4.8009 6.1048l-28.522-9.1204c-21.265-54.96-55.239 42.3-11.447 17.1l31.189 10.951c3.0437 0.80933 6.1917 4.1938 1.9812 7.1764l-24.064 15.081c-40.829-12.652-14.302 52.693 9.0645 17.341l32.832-20.579c7.3582-4.4101 8.8406-4.7282 14.127 2.4834 19.298 24.259 46.454 65.202 59.82 85.712 7.28 11.899 9.7395 12.066 22.22 11.566l69.497-4.5769c16.592-1.5721 15.507 0.48734 15.896 13.853 1.3091 43.913 10.138 85.029 22.076 126.8 5.638 17.417 5.834 15.606-1.551 32.638l-26.725 61.638c-7.4207 13.439-7.6883 21.087-9.2023 35.889l-9.1432 89.392c-1.3466 6.5553-1.9655 8.437-8.1443 7.592l-32.63-10.71c-16.994-35.848-43.196 41.772-1.4354 19.212l26.34 8.0313c3.4591 1.1241 7.9627 3.9504 4.2764 6.8206l-22.116 20.264c-48.976-2.2963 21.522 64.24 13.81 10.087l24.02-19.184c4.9013-4.5298 7.9005-2.937 10.497 1.1844l17.539 27.633c-2.0862 51.37 67.954-8.1699 14.177-11.936l-12.534-22.986c-1.7291-3.2115 1.1078-7.1162 6.2936-6.6939l26.5 1.3378c37.06 25.54 29.32-49.205-2.4808-19.201l-27.718-1.9021c-5.7275 0.14625-8.3349-1.1981-5.9754-7.4767l14.244-45.581c2.6843-13.15 7.6399-21.946 14.441-33.055l22.509-36.767c7.6559-15.576 15.34-5.2802 14.716 2.6995 4.0525 56.246 27.999 101.4 41.786 150.09 43.153 186.62-145.55 189.73-213.79 147.06-71.037-44.421-73.977-129.5-22.816-194.67-76.327 44.355-54.992 170.48 0.084 220.14 72.5 65.368 190.87 35.424 233.45 4.9674 55.069-39.393 66.376-123.13 45.229-191.15-13.394-43.085-40.016-86.913-27.714-160.37 1.1152-6.0391 7.8945-4.8489 10.775-3.1515l59.729 32.737c6.4568 2.3571 8.4859 6.0435 11.846 11.644l31.408 52.346c4.734 7.1042 1.1384 8.2206-4.7618 10.212l-23.089 7.2758c-45.017-15.589-26.589 57.69 1.525 19.495l22.827-4.9806c8.7206-2.7326 7.7175 1.7963 6.1533 7.8122l-4.1339 19.689c-49.614 20.841 32.293 60.669 16.388 7.7064l11.86-26.874c3.3553-8.958 5.4703-7.1882 12.705-4.4199l24.408 10.969c7.1466 54.345 55.179-28.391 11.11-12.136l-20.156-13.07c-4.2854-2.7629-8.6182-5.4179-2.9098-9.0386l23.217-14.44c44.577 12.76 3.661-60.241-10.22-15.529l-23.567 13.295c-6.9453 3.3532-8.5362 1.9369-11.884-4.5776l-38.62-86.429c-2.5482-8.1965-5.5881-10.865-11.837-16.112l-88.863-74.609c-9.838-7.195-8.336-7.9224-9.9069-18.221-5.3097-34.758-12.654-70.873-32.203-115.12-6.2994-14.937-5.3147-14.698 10.178-21.069l60.353-24.817c13.711-4.8512 11.846-4.9954 19.322-17.073l50.019-85.619c5.9891-11.899 5.9922-11.937 17.347-6.4368l33.793 16.368c24.165 35.799 46.874-34.883 6.406-16.984l-25.868-10.809c-6.8948-3.5677-4.682-8.8667 0.18542-10.871l31.099-12.805c47.798 25.047 1.7323-73.816-11.444-16.543l-27.567 14.087c-8.5692 5.6137-10.105-3.5476-7.8823-7.944l8.004-19.404c47.911-28.627-51.337-50.928-19.737-5.0388l-6.2038 23.17c-2.5288 10.316-6.7784 9.1362-12.727 3.4272l-20.194-19.7c-9.3153-51.638-65.413 22.566-13.452 14.515l17.648 14.06c6.0986 3.9307 3.9026 9.1108-3.1125 8.3134l-26.905-0.37446c-34.094-23.512-26.931 51.728 5.6887 18.328l27.893-1.3606c7.197-0.25119 12.605 1.92 5.2112 10.774l-48.178 64.151c-8.0713 10.721-6.0699 9.3725-18.395 12.111l-53.805 11.957c-17.718 4.1577-16.731 2.9429-23.384-12.384l-21.469-49.464 13.076-91.161c1.9594-19.971 2.624-23.585-9.5343-38.528l-42.65-44.867c-8.8845-9.8729-26.636-19.937-36.864 3.6671z" fill="url(#linearGradient2992)"/>
  </g>
  <metadata>
    <rdf:RDF>
      <cc:Work>
        <dc:format>image/svg+xml</dc:format>
        <dc:type rdf:resource="http://purl.org/dc/dcmitype/StillImage"/>
        <cc:license rdf:resource="http://creativecommons.org/licenses/publicdomain/"/>
        <dc:publisher>
          <cc:Agent rdf:about="http://openclipart.org/">
            <dc:title>Openclipart</dc:title>
          </cc:Agent>
        </dc:publisher>
        <dc:title>Gecko</dc:title>
        <dc:date>2011-02-19T04:03:32</dc:date>
        <dc:description>A Green Gecko drawn with Inkscape.</dc:description>
        <dc:source>http://openclipart.org/detail/120865/gecko-by-merlin2525</dc:source>
        <dc:creator>
          <cc:Agent>
            <dc:title>Merlin2525</dc:title>
          </cc:Agent>
        </dc:creator>
        <dc:subject>
          <rdf:Bag>
            <rdf:li>Gecko</rdf:li>
            <rdf:li>animal</rdf:li>
            <rdf:li>clip art</rdf:li>
            <rdf:li>clipart</rdf:li>
            <rdf:li>jungle</rdf:li>
            <rdf:li>lagartija</rdf:li>
            <rdf:li>lagarto</rdf:li>
            <rdf:li>lezard</rdf:li>
            <rdf:li>lizard</rdf:li>
            <rdf:li>mascota</rdf:li>
            <rdf:li>mascotte</rdf:li>
            <rdf:li>naturaleza</rdf:li>
            <rdf:li>nature</rdf:li>
            <rdf:li>pet</rdf:li>
            <rdf:li>selva</rdf:li>
            <rdf:li>tropical</rdf:li>
            <rdf:li>tropics</rdf:li>
            <rdf:li>tropiques</rdf:li>
          </rdf:Bag>
        </dc:subject>
      </cc:Work>
      <cc:License rdf:about="http://creativecommons.org/licenses/publicdomain/">
        <cc:permits rdf:resource="http://creativecommons.org/ns#Reproduction"/>
        <cc:permits rdf:resource="http://creativecommons.org/ns#Distribution"/>
        <cc:permits rdf:resource="http://creativecommons.org/ns#DerivativeWorks"/>
      </cc:License>
    </rdf:RDF>
  </metadata>
</svg>
